<?xml version="1.0" encoding="UTF-8" standalone="no"?>
<svg
   version="1.0"
   width="65.391998mm"
   height="17.638889mm"
   viewBox="0 0 185.36314 50"
   preserveAspectRatio="xMidYMid"
   id="svg3"
   sodipodi:docname="logo_text_color.svg"
   inkscape:version="1.3.2 (091e20e, 2023-11-25, custom)"
   xmlns:inkscape="http://www.inkscape.org/namespaces/inkscape"
   xmlns:sodipodi="http://sodipodi.sourceforge.net/DTD/sodipodi-0.dtd"
   xmlns="http://www.w3.org/2000/svg"
   xmlns:svg="http://www.w3.org/2000/svg">
  <defs
     id="defs3" />
  <sodipodi:namedview
     id="namedview3"
     pagecolor="#ffffff"
     bordercolor="#000000"
     borderopacity="0.25"
     inkscape:showpageshadow="2"
     inkscape:pageopacity="0.0"
     inkscape:pagecheckerboard="0"
     inkscape:deskcolor="#d1d1d1"
     inkscape:document-units="pt"
     inkscape:zoom="2.0800782"
     inkscape:cx="119.46666"
     inkscape:cy="-20.6723"
     inkscape:window-width="1600"
     inkscape:window-height="930"
     inkscape:window-x="-6"
     inkscape:window-y="388"
     inkscape:window-maximized="1"
     inkscape:current-layer="svg3" />
  <g
     transform="matrix(0.00680881,0,0,-0.00680881,-16.861092,59.410829)"
     fill="#ffffff"
     stroke="none"
     id="g3"
     style="display:inline;fill:#f3f3f3;fill-opacity:1">
    <path
       d="m 4960,7294 c -162,-30 -252,-52 -340,-85 -452,-170 -811,-573 -920,-1034 -30,-124 -43,-329 -30,-465 15,-159 34,-244 84,-374 80,-205 171,-343 362,-546 212,-224 265,-297 305,-418 16,-49 22,-88 21,-151 -1,-112 17,-177 64,-224 58,-57 76,-59 649,-55 l 510,3 41,24 c 69,39 86,83 95,235 12,222 58,307 289,543 219,223 324,380 400,592 57,160 80,280 87,461 4,130 2,175 -15,275 -103,597 -553,1065 -1157,1200 -68,16 -390,29 -445,19 z m 46,-378 c 71,-71 38,-121 -108,-166 -309,-96 -520,-295 -608,-575 -26,-84 -64,-125 -114,-125 -43,0 -84,32 -91,73 -13,70 92,314 185,431 153,191 316,301 550,370 118,35 144,34 186,-8 z"
       id="path1"
       style="fill:#f3f3f3;fill-opacity:1" />
    <path
       d="m 4603,3720 c -101,-11 -172,-85 -173,-181 0,-53 45,-136 93,-167 l 41,-27 h 557 557 l 44,30 c 111,79 117,212 13,303 -19,18 -45,34 -58,36 -37,8 -1007,13 -1074,6 z"
       id="path2"
       style="fill:#f3f3f3;fill-opacity:1" />
    <path
       d="m 4833,3120 c -46,-19 -43,-115 6,-181 39,-53 108,-103 166,-119 67,-19 208,-9 270,19 126,56 201,193 144,265 l -20,26 -272,-1 c -150,0 -282,-4 -294,-9 z"
       id="path3"
       style="fill:#f3f3f3;fill-opacity:1" />
  </g>
  <text
     xml:space="preserve"
     style="font-size:47.9999px;line-height:1.3;font-family:Lexend;-inkscape-font-specification:'Lexend, @wght=900';font-variation-settings:'wght' 900;letter-spacing:0px;fill:#f3f3f3;fill-opacity:1;stroke:#ffffff;stroke-width:0;stroke-linecap:round;stroke-linejoin:round;paint-order:markers stroke fill"
     x="46"
     y="34.514214"
     id="text2"><tspan
       sodipodi:role="line"
       id="tspan2"
       style="font-style:normal;font-variant:normal;font-weight:normal;font-stretch:normal;font-size:28px;font-family:Outfit;-inkscape-font-specification:'Outfit, @wght=800';font-variant-ligatures:normal;font-variant-caps:normal;font-variant-numeric:normal;font-variant-east-asian:normal;font-variation-settings:'wght' 800;fill:#f3f3f3;fill-opacity:1;stroke-width:0"
       x="46"
       y="34.514214">Recognify<tspan
   style="fill:#89ba8d;fill-opacity:1"
   id="tspan3">.</tspan></tspan></text>
</svg>
