<?xml version="1.0" encoding="UTF-8" standalone="no"?>
<!-- Created with Inkscape (http://www.inkscape.org/) -->

<svg
   width="20mm"
   height="10.719mm"
   viewBox="0 0 20 10.718999"
   version="1.1"
   id="svg1"
   inkscape:version="1.3.2 (091e20e, 2023-11-25, custom)"
   sodipodi:docname="logo.svg"
   xmlns:inkscape="http://www.inkscape.org/namespaces/inkscape"
   xmlns:sodipodi="http://sodipodi.sourceforge.net/DTD/sodipodi-0.dtd"
   xmlns="http://www.w3.org/2000/svg"
   xmlns:svg="http://www.w3.org/2000/svg">
  <sodipodi:namedview
     id="namedview1"
     pagecolor="#ffffff"
     bordercolor="#000000"
     borderopacity="0.25"
     inkscape:showpageshadow="2"
     inkscape:pageopacity="0.0"
     inkscape:pagecheckerboard="0"
     inkscape:deskcolor="#d1d1d1"
     inkscape:document-units="mm"
     inkscape:zoom="1.7436412"
     inkscape:cx="125.88599"
     inkscape:cy="84.306336"
     inkscape:window-width="1600"
     inkscape:window-height="930"
     inkscape:window-x="-6"
     inkscape:window-y="162"
     inkscape:window-maximized="1"
     inkscape:current-layer="layer1" />
  <defs
     id="defs1" />
  <g
     inkscape:label="Vrstva 1"
     inkscape:groupmode="layer"
     id="layer1">
    <path
       style="fill:#4fd376;stroke:#ff0909;stroke-width:0.00000000891238;fill-opacity:1"
       d="M 5.7845183,0.63238 C 1.2695431,2.05071 0,5.3592793 0,5.3592793 c 0,0 1.2080193,3.3401897 5.8045375,4.7467697 A 6.3396469,6.3389473 0 0 1 3.6603129,5.3592793 6.3396469,6.3389473 0 0 1 5.7845183,0.63238 Z"
       id="path3"
       inkscape:label="left_corner" />
    <path
       style="fill:#4fd376;stroke:#ff0909;stroke-width:0.00000000891238;fill-opacity:1"
       d="m 14.176314,0.59248 a 6.3396469,6.3389473 0 0 1 2.163375,4.7667793 6.3396469,6.3389473 0 0 1 -2.26115,4.8452597 C 18.729013,8.840479 20,5.2387293 20,5.2387293 c 0,0 -1.58837,-3.2749993 -5.823686,-4.6462493 z"
       id="path1"
       inkscape:label="right_corner" />
    <path
       id="path2"
       style="fill:#4fd376;stroke:#ff0909;stroke-width:0.000000010056;fill-opacity:1"
       d="M 9.9999755,0 A 5.359915,5.3593235 0 0 0 4.640022,5.3593593 5.359915,5.3593235 0 0 0 9.9999755,10.718729 5.359915,5.3593235 0 0 0 15.35993,5.3593593 5.359915,5.3593235 0 0 0 9.9999755,0 Z m 0,1.98489 A 3.3746886,3.3743162 0 0 1 13.37482,5.3593593 3.3746886,3.3743162 0 0 1 9.9999755,8.733319 3.3746886,3.3743162 0 0 1 6.6251321,5.3593593 3.3746886,3.3743162 0 0 1 9.9999755,1.98489 Z"
       inkscape:label="outer_circle" />
    <path
       id="circle3"
       style="stroke:#ff0909;stroke-width:0.00000000334182;fill:#4fd376;fill-opacity:1"
       d="M 12.310439,6.423319 A 1.7812234,1.7810268 0 0 1 10.529216,8.204349 1.7812234,1.7810268 0 0 1 8.7479923,6.423319 1.7812234,1.7810268 0 0 1 10.529216,4.6422997 1.7812234,1.7810268 0 0 1 12.310439,6.423319 Z"
       inkscape:label="inner_circle" />
  </g>
</svg>
