<?xml version="1.0" encoding="UTF-8" standalone="no"?>
<!-- Created with Inkscape (http://www.inkscape.org/) -->

<svg
   width="98mm"
   height="20.868999mm"
   viewBox="0 0 98 20.868999"
   version="1.1"
   id="svg1"
   inkscape:version="1.3.2 (091e20e, 2023-11-25, custom)"
   sodipodi:docname="logo_text.svg"
   xmlns:inkscape="http://www.inkscape.org/namespaces/inkscape"
   xmlns:sodipodi="http://sodipodi.sourceforge.net/DTD/sodipodi-0.dtd"
   xmlns="http://www.w3.org/2000/svg"
   xmlns:svg="http://www.w3.org/2000/svg">
  <sodipodi:namedview
     id="namedview1"
     pagecolor="#ffffff"
     bordercolor="#000000"
     borderopacity="0.25"
     inkscape:showpageshadow="2"
     inkscape:pageopacity="0.0"
     inkscape:pagecheckerboard="0"
     inkscape:deskcolor="#d1d1d1"
     inkscape:document-units="mm"
     inkscape:zoom="1.7436412"
     inkscape:cx="379.37851"
     inkscape:cy="813.81422"
     inkscape:window-width="1920"
     inkscape:window-height="1010"
     inkscape:window-x="3193"
     inkscape:window-y="-6"
     inkscape:window-maximized="1"
     inkscape:current-layer="layer1" />
  <defs
     id="defs1" />
  <g
     inkscape:label="Vrstva 1"
     inkscape:groupmode="layer"
     id="layer1">
    <text
       xml:space="preserve"
       style="font-style:normal;font-variant:normal;font-weight:bold;font-stretch:normal;font-size:13.4056px;font-family:Rubik;-inkscape-font-specification:'Rubik, Bold';font-variant-ligatures:normal;font-variant-caps:normal;font-variant-numeric:normal;font-variant-east-asian:normal;fill:#000000;stroke:#ff0909;stroke-width:3.175e-08"
       x="28.01749"
       y="13.920162"
       id="text2"><tspan
         sodipodi:role="line"
         id="tspan2"
         style="font-style:normal;font-variant:normal;font-weight:bold;font-stretch:normal;font-size:13.4056px;font-family:Rubik;-inkscape-font-specification:'Rubik, Bold';font-variant-ligatures:normal;font-variant-caps:normal;font-variant-numeric:normal;font-variant-east-asian:normal;stroke-width:3.175e-08"
         x="28.01749"
         y="13.920162">recognify</tspan></text>
    <path
       style="fill:#000000;stroke:#ff0909;stroke-width:8.91189e-09"
       d="M 9.78388,5.6685757 C 5.269403,7.0869057 4,10.395475 4,10.395475 c 0,0 1.207886,3.34019 5.803897,4.74677 A 6.3389473,6.3389473 0 0 1 7.659909,10.395475 6.3389473,6.3389473 0 0 1 9.78388,5.6685757 Z"
       id="path3"
       inkscape:label="left_corner" />
    <path
       style="fill:#000000;stroke:#ff0909;stroke-width:8.91189e-09"
       d="m 18.17475,5.6286757 a 6.3389473,6.3389473 0 0 1 2.163136,4.7667793 6.3389473,6.3389473 0 0 1 -2.260901,4.84526 c 4.649961,-1.36404 5.920808,-4.96579 5.920808,-4.96579 0,0 -1.588195,-3.2749993 -5.823043,-4.6462493 z"
       id="path1"
       inkscape:label="right_corner" />
    <path
       id="path2"
       style="fill:#000000;stroke:#ff0909;stroke-width:1.00554e-08"
       d="m 13.998872,5.0361957 a 5.3593235,5.3593235 0 0 0 -5.359362,5.3593593 5.3593235,5.3593235 0 0 0 5.359362,5.35937 5.3593235,5.3593235 0 0 0 5.359363,-5.35937 5.3593235,5.3593235 0 0 0 -5.359363,-5.3593593 z m 0,1.98489 a 3.3743162,3.3743162 0 0 1 3.374472,3.3744693 3.3743162,3.3743162 0 0 1 -3.374472,3.37396 3.3743162,3.3743162 0 0 1 -3.374471,-3.37396 3.3743162,3.3743162 0 0 1 3.374471,-3.3744693 z"
       inkscape:label="outer_circle" />
    <path
       id="circle3"
       style="stroke:#ff0909;stroke-width:3.34164e-09"
       d="m 16.309081,11.459515 a 1.7810268,1.7810268 0 0 1 -1.781027,1.78103 1.7810268,1.7810268 0 0 1 -1.781027,-1.78103 1.7810268,1.7810268 0 0 1 1.781027,-1.7810196 1.7810268,1.7810268 0 0 1 1.781027,1.7810196 z"
       inkscape:label="inner_circle" />
  </g>
</svg>
